# xmcd
#
# Track frame offsets:
# 150
# 13048
# 25360
# 39783
# 54123
# 68103
# 81067
# 90928
# 103540
# 115799
# 127957
# 139718
#
# Disc length: 2074 seconds
#
#
# Revision: 1
# Processed by: cddbd v1.5.1PL2 Copyright (c) Steve Scherf et al.
# Submitted via: FreeRIP 2.945 
#
DISCID=8508180c
DTITLE=Merle Haggard - Sing Me Back Home Greatest Hits C D 1
DYEAR=2004
DGENRE=Country
TTITLE0=Swinging Doors
TTITLE1=The Bottle Let Me Down
TTITLE2=I'm A Lonesome Fugitive
TTITLE3=Branded Man
TTITLE4=I Threw Away The Rose
TTITLE5=Sing Me Back Home
TTITLE6=Mama Tried
TTITLE7=Silver Wings
TTITLE8=I Take A Lot Of Pride In What I Am
TTITLE9=Okie From Muskogie
TTITLE10=Carolyn
TTITLE11=It's Not Love ( But it's Not Bad )
EXTD=Remake
EXTT0=
EXTT1=
EXTT2=
EXTT3=
EXTT4=
EXTT5=
EXTT6=
EXTT7=
EXTT8=
EXTT9=
EXTT10=
EXTT11=
PLAYORDER=
